<svg width="600" height="900" viewBox="0 0 600 900" fill="none" xmlns="http://www.w3.org/2000/svg">
<rect width="600" height="900" fill="#B7B7B7"/>
<path d="M121.035 403V347.727H139.711C144.047 347.727 147.592 348.51 150.345 350.075C153.115 351.623 155.167 353.719 156.498 356.364C157.829 359.009 158.495 361.959 158.495 365.216C158.495 368.473 157.829 371.432 156.498 374.095C155.185 376.758 153.151 378.881 150.399 380.464C147.646 382.03 144.119 382.812 139.819 382.812H126.433V376.875H139.603C142.572 376.875 144.956 376.362 146.755 375.337C148.554 374.311 149.859 372.926 150.669 371.18C151.496 369.417 151.91 367.429 151.91 365.216C151.91 363.003 151.496 361.024 150.669 359.278C149.859 357.533 148.545 356.166 146.728 355.176C144.911 354.169 142.5 353.665 139.495 353.665H127.728V403H121.035ZM184.809 403.864C181.067 403.864 177.783 402.973 174.958 401.192C172.151 399.411 169.956 396.919 168.373 393.716C166.808 390.513 166.025 386.771 166.025 382.489C166.025 378.17 166.808 374.401 168.373 371.18C169.956 367.96 172.151 365.459 174.958 363.678C177.783 361.896 181.067 361.006 184.809 361.006C188.552 361.006 191.826 361.896 194.633 363.678C197.458 365.459 199.653 367.96 201.218 371.18C202.802 374.401 203.593 378.17 203.593 382.489C203.593 386.771 202.802 390.513 201.218 393.716C199.653 396.919 197.458 399.411 194.633 401.192C191.826 402.973 188.552 403.864 184.809 403.864ZM184.809 398.142C187.652 398.142 189.991 397.413 191.826 395.956C193.661 394.499 195.02 392.582 195.901 390.207C196.783 387.832 197.224 385.259 197.224 382.489C197.224 379.718 196.783 377.136 195.901 374.743C195.02 372.35 193.661 370.416 191.826 368.94C189.991 367.465 187.652 366.727 184.809 366.727C181.966 366.727 179.627 367.465 177.792 368.94C175.957 370.416 174.598 372.35 173.717 374.743C172.835 377.136 172.394 379.718 172.394 382.489C172.394 385.259 172.835 387.832 173.717 390.207C174.598 392.582 175.957 394.499 177.792 395.956C179.627 397.413 181.966 398.142 184.809 398.142ZM242.68 370.83L236.958 372.449C236.598 371.495 236.067 370.569 235.366 369.669C234.682 368.751 233.746 367.996 232.559 367.402C231.371 366.808 229.851 366.511 227.998 366.511C225.461 366.511 223.347 367.096 221.655 368.266C219.982 369.417 219.145 370.884 219.145 372.665C219.145 374.248 219.721 375.499 220.873 376.416C222.024 377.334 223.823 378.098 226.27 378.71L232.424 380.222C236.13 381.121 238.892 382.498 240.709 384.351C242.527 386.186 243.435 388.552 243.435 391.449C243.435 393.824 242.751 395.947 241.384 397.818C240.035 399.689 238.145 401.165 235.716 402.244C233.287 403.324 230.463 403.864 227.242 403.864C223.014 403.864 219.514 402.946 216.743 401.111C213.973 399.276 212.218 396.595 211.481 393.068L217.526 391.557C218.102 393.788 219.19 395.461 220.792 396.577C222.411 397.692 224.525 398.25 227.134 398.25C230.103 398.25 232.46 397.62 234.205 396.361C235.968 395.083 236.85 393.554 236.85 391.773C236.85 390.333 236.346 389.128 235.339 388.156C234.331 387.167 232.784 386.429 230.697 385.943L223.787 384.324C219.991 383.424 217.202 382.03 215.421 380.141C213.658 378.233 212.776 375.849 212.776 372.989C212.776 370.65 213.433 368.58 214.746 366.781C216.078 364.982 217.886 363.57 220.171 362.544C222.474 361.518 225.083 361.006 227.998 361.006C232.1 361.006 235.321 361.905 237.66 363.705C240.017 365.504 241.69 367.879 242.68 370.83ZM271.051 361.545V366.943H249.568V361.545H271.051ZM255.83 351.614H262.199V391.125C262.199 392.924 262.46 394.274 262.982 395.173C263.521 396.055 264.205 396.649 265.033 396.955C265.878 397.242 266.769 397.386 267.705 397.386C268.406 397.386 268.982 397.35 269.432 397.278C269.882 397.188 270.242 397.116 270.512 397.062L271.807 402.784C271.375 402.946 270.772 403.108 269.999 403.27C269.225 403.45 268.244 403.54 267.057 403.54C265.258 403.54 263.494 403.153 261.767 402.379C260.058 401.606 258.637 400.427 257.503 398.844C256.387 397.26 255.83 395.263 255.83 392.852V351.614ZM297.568 403.864C293.573 403.864 290.128 402.982 287.231 401.219C284.352 399.438 282.13 396.955 280.565 393.77C279.017 390.567 278.244 386.843 278.244 382.597C278.244 378.35 279.017 374.608 280.565 371.369C282.13 368.113 284.307 365.576 287.096 363.759C289.903 361.923 293.177 361.006 296.92 361.006C299.079 361.006 301.211 361.366 303.316 362.085C305.421 362.805 307.338 363.974 309.065 365.594C310.792 367.195 312.169 369.318 313.194 371.963C314.22 374.608 314.732 377.865 314.732 381.733V384.432H282.778V378.926H308.255C308.255 376.587 307.787 374.5 306.852 372.665C305.934 370.83 304.621 369.381 302.911 368.32C301.22 367.258 299.223 366.727 296.92 366.727C294.383 366.727 292.188 367.357 290.335 368.616C288.499 369.858 287.087 371.477 286.097 373.474C285.108 375.472 284.613 377.613 284.613 379.898V383.568C284.613 386.699 285.153 389.353 286.232 391.53C287.33 393.689 288.85 395.335 290.794 396.469C292.737 397.584 294.995 398.142 297.568 398.142C299.241 398.142 300.752 397.908 302.102 397.44C303.469 396.955 304.648 396.235 305.637 395.281C306.627 394.31 307.392 393.104 307.931 391.665L314.085 393.392C313.437 395.479 312.348 397.314 310.819 398.898C309.29 400.463 307.401 401.687 305.151 402.568C302.902 403.432 300.374 403.864 297.568 403.864ZM324.421 403V361.545H330.575V367.807H331.007C331.762 365.756 333.13 364.091 335.109 362.814C337.088 361.536 339.319 360.898 341.802 360.898C342.27 360.898 342.855 360.907 343.556 360.925C344.258 360.943 344.789 360.97 345.149 361.006V367.483C344.933 367.429 344.438 367.348 343.664 367.24C342.909 367.114 342.108 367.051 341.262 367.051C339.247 367.051 337.448 367.474 335.865 368.32C334.299 369.147 333.058 370.299 332.14 371.774C331.24 373.232 330.791 374.896 330.791 376.767V403H324.421ZM380.443 378.062V403H374.074V361.545H380.227V368.023H380.767C381.738 365.918 383.214 364.226 385.193 362.949C387.172 361.653 389.727 361.006 392.858 361.006C395.665 361.006 398.121 361.581 400.226 362.733C402.331 363.866 403.968 365.594 405.138 367.915C406.307 370.218 406.892 373.133 406.892 376.659V403H400.523V377.091C400.523 373.834 399.677 371.297 397.986 369.48C396.294 367.645 393.973 366.727 391.023 366.727C388.989 366.727 387.172 367.168 385.571 368.05C383.988 368.931 382.737 370.218 381.819 371.909C380.902 373.6 380.443 375.652 380.443 378.062ZM435.372 403.864C431.629 403.864 428.346 402.973 425.521 401.192C422.714 399.411 420.519 396.919 418.936 393.716C417.37 390.513 416.588 386.771 416.588 382.489C416.588 378.17 417.37 374.401 418.936 371.18C420.519 367.96 422.714 365.459 425.521 363.678C428.346 361.896 431.629 361.006 435.372 361.006C439.114 361.006 442.389 361.896 445.195 363.678C448.02 365.459 450.215 367.96 451.781 371.18C453.364 374.401 454.156 378.17 454.156 382.489C454.156 386.771 453.364 390.513 451.781 393.716C450.215 396.919 448.02 399.411 445.195 401.192C442.389 402.973 439.114 403.864 435.372 403.864ZM435.372 398.142C438.214 398.142 440.553 397.413 442.389 395.956C444.224 394.499 445.582 392.582 446.464 390.207C447.346 387.832 447.786 385.259 447.786 382.489C447.786 379.718 447.346 377.136 446.464 374.743C445.582 372.35 444.224 370.416 442.389 368.94C440.553 367.465 438.214 366.727 435.372 366.727C432.529 366.727 430.19 367.465 428.355 368.94C426.519 370.416 425.161 372.35 424.279 374.743C423.398 377.136 422.957 379.718 422.957 382.489C422.957 385.259 423.398 387.832 424.279 390.207C425.161 392.582 426.519 394.499 428.355 395.956C430.19 397.413 432.529 398.142 435.372 398.142ZM481.907 361.545V366.943H460.424V361.545H481.907ZM466.685 351.614H473.055V391.125C473.055 392.924 473.315 394.274 473.837 395.173C474.377 396.055 475.061 396.649 475.888 396.955C476.734 397.242 477.625 397.386 478.56 397.386C479.262 397.386 479.838 397.35 480.287 397.278C480.737 397.188 481.097 397.116 481.367 397.062L482.662 402.784C482.231 402.946 481.628 403.108 480.854 403.27C480.081 403.45 479.1 403.54 477.912 403.54C476.113 403.54 474.35 403.153 472.623 402.379C470.913 401.606 469.492 400.427 468.358 398.844C467.243 397.26 466.685 395.263 466.685 392.852V351.614ZM161.241 495.972C158.614 495.972 156.23 495.477 154.089 494.487C151.948 493.48 150.248 492.031 148.988 490.142C147.729 488.235 147.099 485.932 147.099 483.233C147.099 480.858 147.567 478.933 148.503 477.457C149.438 475.964 150.689 474.795 152.254 473.949C153.819 473.103 155.547 472.473 157.436 472.06C159.343 471.628 161.259 471.286 163.184 471.034C165.703 470.71 167.746 470.467 169.311 470.305C170.894 470.125 172.046 469.829 172.765 469.415C173.503 469.001 173.872 468.281 173.872 467.256V467.04C173.872 464.377 173.143 462.308 171.686 460.832C170.247 459.357 168.06 458.619 165.128 458.619C162.087 458.619 159.703 459.285 157.976 460.616C156.248 461.948 155.034 463.369 154.332 464.881L148.287 462.722C149.366 460.203 150.806 458.241 152.605 456.838C154.422 455.417 156.401 454.427 158.542 453.869C160.702 453.294 162.825 453.006 164.912 453.006C166.243 453.006 167.773 453.168 169.5 453.491C171.245 453.797 172.927 454.436 174.547 455.408C176.184 456.379 177.542 457.846 178.622 459.807C179.702 461.768 180.241 464.395 180.241 467.688V495H173.872V489.386H173.548C173.116 490.286 172.397 491.249 171.389 492.274C170.381 493.3 169.041 494.172 167.368 494.892C165.694 495.612 163.652 495.972 161.241 495.972ZM162.213 490.25C164.732 490.25 166.855 489.755 168.582 488.766C170.327 487.776 171.641 486.499 172.523 484.933C173.422 483.368 173.872 481.722 173.872 479.994V474.165C173.602 474.489 173.008 474.786 172.091 475.055C171.191 475.307 170.148 475.532 168.96 475.73C167.791 475.91 166.648 476.072 165.532 476.216C164.435 476.342 163.544 476.45 162.861 476.54C161.205 476.756 159.658 477.107 158.219 477.592C156.797 478.06 155.646 478.771 154.764 479.724C153.9 480.66 153.469 481.937 153.469 483.557C153.469 485.77 154.287 487.443 155.925 488.577C157.58 489.692 159.676 490.25 162.213 490.25ZM224.28 453.545L208.95 495H202.473L187.144 453.545H194.053L205.496 486.58H205.928L217.371 453.545H224.28ZM243.624 495.972C240.997 495.972 238.613 495.477 236.472 494.487C234.331 493.48 232.631 492.031 231.371 490.142C230.112 488.235 229.482 485.932 229.482 483.233C229.482 480.858 229.95 478.933 230.885 477.457C231.821 475.964 233.072 474.795 234.637 473.949C236.202 473.103 237.93 472.473 239.819 472.06C241.726 471.628 243.642 471.286 245.567 471.034C248.086 470.71 250.128 470.467 251.694 470.305C253.277 470.125 254.429 469.829 255.148 469.415C255.886 469.001 256.255 468.281 256.255 467.256V467.04C256.255 464.377 255.526 462.308 254.069 460.832C252.629 459.357 250.443 458.619 247.51 458.619C244.47 458.619 242.086 459.285 240.358 460.616C238.631 461.948 237.417 463.369 236.715 464.881L230.67 462.722C231.749 460.203 233.189 458.241 234.988 456.838C236.805 455.417 238.784 454.427 240.925 453.869C243.084 453.294 245.207 453.006 247.295 453.006C248.626 453.006 250.155 453.168 251.883 453.491C253.628 453.797 255.31 454.436 256.93 455.408C258.567 456.379 259.925 457.846 261.005 459.807C262.084 461.768 262.624 464.395 262.624 467.688V495H256.255V489.386H255.931C255.499 490.286 254.779 491.249 253.772 492.274C252.764 493.3 251.424 494.172 249.751 494.892C248.077 495.612 246.035 495.972 243.624 495.972ZM244.596 490.25C247.115 490.25 249.238 489.755 250.965 488.766C252.71 487.776 254.024 486.499 254.905 484.933C255.805 483.368 256.255 481.722 256.255 479.994V474.165C255.985 474.489 255.391 474.786 254.474 475.055C253.574 475.307 252.53 475.532 251.343 475.73C250.173 475.91 249.031 476.072 247.915 476.216C246.818 476.342 245.927 476.45 245.243 476.54C243.588 476.756 242.041 477.107 240.601 477.592C239.18 478.06 238.028 478.771 237.147 479.724C236.283 480.66 235.851 481.937 235.851 483.557C235.851 485.77 236.67 487.443 238.307 488.577C239.963 489.692 242.059 490.25 244.596 490.25ZM274.249 495V453.545H280.619V495H274.249ZM277.488 446.636C276.247 446.636 275.176 446.214 274.276 445.368C273.395 444.522 272.954 443.506 272.954 442.318C272.954 441.131 273.395 440.114 274.276 439.268C275.176 438.423 276.247 438 277.488 438C278.73 438 279.791 438.423 280.673 439.268C281.572 440.114 282.022 441.131 282.022 442.318C282.022 443.506 281.572 444.522 280.673 445.368C279.791 446.214 278.73 446.636 277.488 446.636ZM298.654 439.727V495H292.285V439.727H298.654ZM322.519 495.972C319.892 495.972 317.508 495.477 315.367 494.487C313.226 493.48 311.525 492.031 310.266 490.142C309.006 488.235 308.377 485.932 308.377 483.233C308.377 480.858 308.844 478.933 309.78 477.457C310.716 475.964 311.966 474.795 313.531 473.949C315.097 473.103 316.824 472.473 318.713 472.06C320.62 471.628 322.537 471.286 324.462 471.034C326.981 470.71 329.023 470.467 330.588 470.305C332.172 470.125 333.323 469.829 334.043 469.415C334.78 469.001 335.149 468.281 335.149 467.256V467.04C335.149 464.377 334.421 462.308 332.963 460.832C331.524 459.357 329.338 458.619 326.405 458.619C323.364 458.619 320.98 459.285 319.253 460.616C317.526 461.948 316.311 463.369 315.61 464.881L309.564 462.722C310.644 460.203 312.083 458.241 313.882 456.838C315.7 455.417 317.679 454.427 319.82 453.869C321.979 453.294 324.102 453.006 326.189 453.006C327.521 453.006 329.05 453.168 330.777 453.491C332.522 453.797 334.205 454.436 335.824 455.408C337.461 456.379 338.82 457.846 339.899 459.807C340.979 461.768 341.519 464.395 341.519 467.688V495H335.149V489.386H334.825C334.394 490.286 333.674 491.249 332.666 492.274C331.659 493.3 330.318 494.172 328.645 494.892C326.972 495.612 324.93 495.972 322.519 495.972ZM323.49 490.25C326.009 490.25 328.132 489.755 329.86 488.766C331.605 487.776 332.918 486.499 333.8 484.933C334.7 483.368 335.149 481.722 335.149 479.994V474.165C334.879 474.489 334.286 474.786 333.368 475.055C332.468 475.307 331.425 475.532 330.237 475.73C329.068 475.91 327.925 476.072 326.81 476.216C325.712 476.342 324.822 476.45 324.138 476.54C322.483 476.756 320.935 477.107 319.496 477.592C318.075 478.06 316.923 478.771 316.041 479.724C315.178 480.66 314.746 481.937 314.746 483.557C314.746 485.77 315.565 487.443 317.202 488.577C318.857 489.692 320.953 490.25 323.49 490.25ZM354.008 495V439.727H360.377V460.131H360.917C361.385 459.411 362.032 458.493 362.86 457.378C363.706 456.244 364.911 455.237 366.476 454.355C368.06 453.455 370.201 453.006 372.9 453.006C376.39 453.006 379.467 453.878 382.13 455.624C384.793 457.369 386.871 459.843 388.364 463.045C389.858 466.248 390.604 470.027 390.604 474.381C390.604 478.771 389.858 482.576 388.364 485.797C386.871 489 384.802 491.482 382.157 493.246C379.512 494.991 376.462 495.864 373.008 495.864C370.345 495.864 368.213 495.423 366.611 494.541C365.01 493.642 363.778 492.625 362.914 491.491C362.05 490.34 361.385 489.386 360.917 488.631H360.161V495H354.008ZM360.269 474.273C360.269 477.403 360.728 480.165 361.645 482.558C362.563 484.933 363.903 486.795 365.667 488.145C367.43 489.476 369.589 490.142 372.144 490.142C374.807 490.142 377.029 489.44 378.81 488.037C380.609 486.616 381.959 484.708 382.858 482.315C383.776 479.904 384.235 477.223 384.235 474.273C384.235 471.358 383.785 468.731 382.885 466.392C382.004 464.035 380.663 462.173 378.864 460.805C377.083 459.42 374.843 458.727 372.144 458.727C369.553 458.727 367.376 459.384 365.613 460.697C363.849 461.993 362.518 463.81 361.618 466.149C360.719 468.47 360.269 471.178 360.269 474.273ZM406.716 439.727V495H400.347V439.727H406.716ZM435.763 495.864C431.769 495.864 428.323 494.982 425.426 493.219C422.548 491.438 420.325 488.955 418.76 485.77C417.213 482.567 416.439 478.843 416.439 474.597C416.439 470.35 417.213 466.608 418.76 463.369C420.325 460.113 422.503 457.576 425.291 455.759C428.098 453.923 431.373 453.006 435.115 453.006C437.274 453.006 439.406 453.366 441.512 454.085C443.617 454.805 445.533 455.974 447.26 457.594C448.987 459.195 450.364 461.318 451.389 463.963C452.415 466.608 452.928 469.865 452.928 473.733V476.432H420.973V470.926H446.45C446.45 468.587 445.983 466.5 445.047 464.665C444.129 462.83 442.816 461.381 441.107 460.32C439.415 459.258 437.418 458.727 435.115 458.727C432.578 458.727 430.383 459.357 428.53 460.616C426.695 461.858 425.282 463.477 424.293 465.474C423.303 467.472 422.808 469.613 422.808 471.898V475.568C422.808 478.699 423.348 481.353 424.428 483.53C425.525 485.689 427.046 487.335 428.989 488.469C430.932 489.584 433.19 490.142 435.763 490.142C437.436 490.142 438.948 489.908 440.297 489.44C441.664 488.955 442.843 488.235 443.833 487.281C444.822 486.31 445.587 485.104 446.127 483.665L452.28 485.392C451.632 487.479 450.544 489.314 449.014 490.898C447.485 492.463 445.596 493.687 443.347 494.568C441.098 495.432 438.57 495.864 435.763 495.864Z" fill="black"/>
</svg>
